<svg width="82" height="74" viewBox="0 0 82 74" fill="none" xmlns="http://www.w3.org/2000/svg">
<path fill-rule="evenodd" clip-rule="evenodd" d="M60.8024 4.94552V12.0342L66.9562 16.5001L66.9568 4.94552H60.8024ZM41.4205 4.73137L74.8271 29.6251H81.6497L59.3123 13.4158C59.2496 13.38 59.1911 13.3374 59.1377 13.2889L40.8252 0L0 29.6251H6.82309L40.2296 4.73137C40.4018 4.60331 40.6106 4.53413 40.8252 4.53413C41.0397 4.53413 41.2484 4.60331 41.4205 4.73137Z" fill="#349627"/>
<path fill-rule="evenodd" clip-rule="evenodd" d="M40.8253 20.229C38.6492 20.229 36.8789 22.0003 36.8789 24.1764C36.8789 26.3527 38.6492 28.1223 40.8253 28.1223C43.0015 28.1223 44.7716 26.3527 44.7716 24.1764C44.7716 22.0003 43.0015 20.229 40.8253 20.229Z" fill="#349627"/>
<path fill-rule="evenodd" clip-rule="evenodd" d="M46.7641 24.1764C46.7641 27.4506 44.0999 30.1143 40.8251 30.1143C37.5501 30.1143 34.8858 27.4506 34.8858 24.1764C34.8858 20.8999 37.5501 18.2361 40.8251 18.2361C44.0999 18.2361 46.7641 20.8999 46.7641 24.1764ZM40.8256 6.77222L8.15039 31.1213V68.6531H17.6445V40.9017C17.6422 40.6872 17.6827 40.4743 17.7638 40.2757C17.8448 40.077 17.9648 39.8966 18.1165 39.7451C18.2684 39.5934 18.449 39.4736 18.6477 39.3927C18.8463 39.3118 19.0593 39.2715 19.2737 39.2742L35.8426 39.2725C36.0572 39.27 36.27 39.3107 36.4689 39.3918C36.6675 39.4728 36.8481 39.5927 36.9998 39.7445C37.1517 39.8962 37.2716 40.0767 37.3526 40.2755C37.4336 40.4741 37.4742 40.6872 37.4719 40.9017V68.6531H73.5002V31.1213L40.8256 6.77222ZM46.0451 39.2725H62.1592C62.6489 39.2732 63.1183 39.4681 63.4643 39.8144C63.8105 40.1607 64.0051 40.6302 64.0055 41.1198V54.1084C64.0053 54.5981 63.8107 55.0677 63.4645 55.4142C63.1185 55.7607 62.6491 55.9556 62.1592 55.9564H46.0451C45.5555 55.9558 45.0858 55.7609 44.7397 55.4146C44.3934 55.0683 44.1987 54.5986 44.1983 54.109V41.1198C44.1987 40.6302 44.3934 40.1607 44.7395 39.8144C45.0855 39.4681 45.5549 39.2732 46.0446 39.2725H46.0451Z" fill="#349627"/>
<path fill-rule="evenodd" clip-rule="evenodd" d="M55.0879 41.2651V53.9636H62.0128V41.2651H55.0879ZM46.1909 41.2651V53.9636H53.0951L53.0957 41.2651H46.1909ZM35.479 41.2651H19.6372V68.6531H35.479V41.2651ZM31.9476 52.9359C32.0785 52.9357 32.2082 52.9615 32.329 53.0115C32.45 53.0615 32.5598 53.1347 32.6524 53.2273C32.745 53.3199 32.8183 53.4298 32.8685 53.5508C32.9185 53.6718 32.944 53.8013 32.944 53.9323V55.9876C32.944 56.2518 32.8389 56.5053 32.652 56.6922C32.4653 56.879 32.2118 56.984 31.9476 56.984C31.6833 56.984 31.4299 56.879 31.243 56.6922C31.0561 56.5053 30.9512 56.2518 30.9512 55.9876V53.9323C30.951 53.8013 30.9768 53.6718 31.0268 53.5508C31.0768 53.4298 31.1502 53.3199 31.2426 53.2273C31.3352 53.1347 31.4451 53.0615 31.5661 53.0115C31.6871 52.9615 31.8168 52.9357 31.9476 52.9359ZM74.4965 70.6458H4.84863V73.8151H76.7817V70.6458H74.4965Z" fill="#349627"/>
</svg>
