<svg width="512" height="512" viewBox="0 0 512 512" fill="none" xmlns="http://www.w3.org/2000/svg">
<path fill-rule="evenodd" clip-rule="evenodd" d="M361.501 87.2099V124.645L393.999 148.229L394.002 87.2099H361.501ZM259.146 86.079L435.565 217.542H471.595L353.632 131.941C353.301 131.752 352.992 131.527 352.71 131.271L256.002 61.0928L40.4058 217.542H76.4383L252.857 86.079C253.766 85.4027 254.869 85.0374 256.002 85.0374C257.135 85.0374 258.237 85.4027 259.146 86.079Z" fill="white"/>
<path fill-rule="evenodd" clip-rule="evenodd" d="M256.002 167.921C244.51 167.921 235.161 177.275 235.161 188.767C235.161 200.26 244.51 209.605 256.002 209.605C267.494 209.605 276.842 200.26 276.842 188.767C276.842 177.275 267.494 167.921 256.002 167.921Z" fill="white"/>
<path fill-rule="evenodd" clip-rule="evenodd" d="M287.366 188.767C287.366 206.058 273.296 220.125 256.002 220.125C238.707 220.125 224.637 206.058 224.637 188.767C224.637 171.464 238.707 157.397 256.002 157.397C273.296 157.397 287.366 171.464 287.366 188.767ZM256.005 96.8564L83.4482 225.443V423.647H133.586V277.093C133.574 275.96 133.788 274.836 134.216 273.787C134.644 272.738 135.278 271.785 136.079 270.985C136.881 270.184 137.835 269.551 138.884 269.124C139.933 268.697 141.058 268.484 142.19 268.498L229.69 268.489C230.823 268.476 231.947 268.691 232.997 269.119C234.046 269.547 235 270.18 235.801 270.982C236.603 271.783 237.236 272.736 237.664 273.786C238.092 274.835 238.306 275.96 238.294 277.093V423.647H428.558V225.443L256.005 96.8564ZM283.569 268.489H368.667C371.253 268.493 373.732 269.522 375.559 271.351C377.387 273.18 378.415 275.659 378.417 278.245V346.837C378.416 349.423 377.388 351.903 375.56 353.733C373.733 355.563 371.254 356.592 368.667 356.596H283.569C280.983 356.593 278.503 355.564 276.675 353.735C274.846 351.906 273.818 349.426 273.816 346.84V278.245C273.818 275.659 274.846 273.18 276.674 271.351C278.501 269.522 280.98 268.493 283.566 268.489H283.569Z" fill="white"/>
<path fill-rule="evenodd" clip-rule="evenodd" d="M331.324 279.013V346.073H367.894V279.013H331.324ZM284.339 279.013V346.073H320.8L320.803 279.013H284.339ZM227.77 279.013H144.11V423.648H227.77V279.013ZM209.121 340.646C209.812 340.645 210.497 340.781 211.135 341.045C211.774 341.309 212.354 341.696 212.843 342.185C213.332 342.674 213.719 343.254 213.984 343.893C214.248 344.532 214.383 345.216 214.383 345.908V356.762C214.383 358.157 213.828 359.496 212.841 360.483C211.855 361.469 210.516 362.024 209.121 362.024C207.725 362.024 206.387 361.469 205.4 360.483C204.413 359.496 203.859 358.157 203.859 356.762V345.908C203.858 345.216 203.994 344.532 204.258 343.893C204.522 343.254 204.91 342.674 205.398 342.185C205.887 341.696 206.467 341.309 207.106 341.045C207.745 340.781 208.43 340.645 209.121 340.646ZM433.82 434.171H66.0122V450.908H445.888V434.171H433.82Z" fill="white"/>
</svg>
