<svg width="298" height="100" viewBox="0 0 298 100" fill="none" xmlns="http://www.w3.org/2000/svg">
<path fill-rule="evenodd" clip-rule="evenodd" d="M171.084 6.69989V16.3032L179.381 22.3532L179.382 6.69989H171.084ZM144.952 6.40978L189.993 40.1342H199.192L169.075 18.1749C168.99 18.1263 168.912 18.0687 168.84 18.003L144.149 0L89.1045 40.1342H98.304L143.346 6.40978C143.578 6.23627 143.859 6.14257 144.149 6.14257C144.438 6.14257 144.719 6.23627 144.952 6.40978Z" fill="#349627"/>
<path fill-rule="evenodd" clip-rule="evenodd" d="M144.149 27.4048C141.215 27.4048 138.828 29.8045 138.828 32.7526C138.828 35.7007 141.215 38.0981 144.149 38.0981C147.083 38.0981 149.469 35.7007 149.469 32.7526C149.469 29.8045 147.083 27.4048 144.149 27.4048Z" fill="#349627"/>
<path fill-rule="evenodd" clip-rule="evenodd" d="M152.156 32.7526C152.156 37.1884 148.564 40.797 144.149 40.797C139.733 40.797 136.141 37.1884 136.141 32.7526C136.141 28.3138 139.733 24.7052 144.149 24.7052C148.564 24.7052 152.156 28.3138 152.156 32.7526ZM144.149 9.17458L100.094 42.1612V93.007H112.895V55.4111C112.891 55.1204 112.946 54.8321 113.055 54.563C113.165 54.2939 113.326 54.0495 113.531 53.844C113.736 53.6386 113.979 53.4764 114.247 53.3668C114.515 53.2573 114.802 53.2026 115.091 53.206L137.431 53.2038C137.72 53.2006 138.007 53.2556 138.275 53.3654C138.543 53.4752 138.787 53.6377 138.991 53.8433C139.196 54.0489 139.358 54.2934 139.467 54.5627C139.576 54.8319 139.631 55.1203 139.628 55.4111V93.007H188.204V42.1612L144.149 9.17458ZM172.913 53.2038C173.574 53.2048 174.206 53.4688 174.673 53.938C175.14 54.4072 175.402 55.0432 175.403 55.7065V73.3027C175.402 73.9661 175.14 74.6023 174.673 75.0717C174.207 75.541 173.574 75.8052 172.913 75.8062H151.187C150.527 75.8054 149.894 75.5414 149.427 75.0722C148.96 74.603 148.697 73.9669 148.697 73.3034V55.7065C148.697 55.0432 148.96 54.4072 149.426 53.938C149.893 53.4688 150.526 53.2048 151.186 53.2038H172.913Z" fill="#349627"/>
<path fill-rule="evenodd" clip-rule="evenodd" d="M163.379 55.9034V73.1065H172.716V55.9034H163.379ZM151.384 55.9034V73.1065H160.692L160.693 55.9034H151.384ZM136.941 55.9034H115.581V93.007H136.941V55.9034ZM132.179 71.7143C132.356 71.7141 132.531 71.7488 132.694 71.8166C132.857 71.8844 133.005 71.9838 133.13 72.1092C133.255 72.2345 133.353 72.3834 133.421 72.5473C133.488 72.7111 133.523 72.8868 133.523 73.0641V75.8486C133.523 76.2066 133.381 76.5499 133.129 76.803C132.877 77.0562 132.536 77.1984 132.179 77.1984C131.823 77.1984 131.481 77.0562 131.229 76.803C130.977 76.5499 130.836 76.2066 130.836 75.8486V73.0641C130.836 72.8868 130.87 72.7111 130.938 72.5473C131.005 72.3834 131.104 72.2345 131.229 72.1092C131.354 71.9838 131.502 71.8844 131.665 71.8166C131.828 71.7488 132.003 71.7141 132.179 71.7143ZM95.6421 95.7066V100H192.629V95.7066H95.6421Z" fill="#349627"/>
<path d="M0 54.734H5.40567L8.39237 82.7845L11.0582 54.734H16.4145L19.2037 82.9829L22.0917 54.734H26.9296L23.005 90.2993H15.6246L13.6006 71.351L11.5765 90.2993H3.92467L0 54.734Z" fill="#252525"/>
<path d="M29.5273 81.7676V63.2657C29.5273 60.4218 30.2596 58.2228 31.7242 56.6685C33.1887 55.1143 35.2786 54.3372 37.9937 54.3372C40.7089 54.3372 42.7906 55.1143 44.2387 56.6685C45.7032 58.2228 46.4355 60.4218 46.4355 63.2657V81.7676C46.4355 84.6115 45.7032 86.8106 44.2387 88.3648C42.7906 89.919 40.7089 90.6961 37.9937 90.6961C35.2786 90.6961 33.1887 89.919 31.7242 88.3648C30.2596 86.8106 29.5273 84.6115 29.5273 81.7676ZM35.1058 82.1148C35.1058 84.4627 36.0684 85.6366 37.9937 85.6366C39.9026 85.6366 40.857 84.4627 40.857 82.1148V62.9185C40.857 60.5872 39.9026 59.4215 37.9937 59.4215C36.0684 59.4215 35.1058 60.5872 35.1058 62.9185V82.1148Z" fill="#252525"/>
<path d="M49.823 81.7676V63.2657C49.823 60.4218 50.5553 58.2228 52.0199 56.6685C53.4844 55.1143 55.5743 54.3372 58.2895 54.3372C61.0046 54.3372 63.0863 55.1143 64.5344 56.6685C65.9989 58.2228 66.7312 60.4218 66.7312 63.2657V81.7676C66.7312 84.6115 65.9989 86.8106 64.5344 88.3648C63.0863 89.919 61.0046 90.6961 58.2895 90.6961C55.5743 90.6961 53.4844 89.919 52.0199 88.3648C50.5553 86.8106 49.823 84.6115 49.823 81.7676ZM55.4015 82.1148C55.4015 84.4627 56.3642 85.6366 58.2895 85.6366C60.1983 85.6366 61.1527 84.4627 61.1527 82.1148V62.9185C61.1527 60.5872 60.1983 59.4215 58.2895 59.4215C56.3642 59.4215 55.4015 60.5872 55.4015 62.9185V82.1148Z" fill="#252525"/>
<path d="M70.5877 90.2993V54.734H79.3751C82.1231 54.734 84.1883 55.4863 85.5706 56.991C86.9693 58.4956 87.6687 60.6781 87.6687 63.5386V81.5196C87.6687 84.38 86.9693 86.5626 85.5706 88.0672C84.1883 89.5553 82.1231 90.2993 79.3751 90.2993H70.5877ZM76.1415 85.215H79.2763C80.1978 85.215 80.8972 84.9505 81.3744 84.4214C81.8681 83.8757 82.1149 82.9912 82.1149 81.7676V63.2657C82.1149 62.0422 81.8681 61.1659 81.3744 60.6368C80.8972 60.0911 80.1978 59.8183 79.2763 59.8183H76.1415V85.215Z" fill="#252525"/>
<path d="M201.168 90.2993V54.734H206.722V69.9869H213.041V54.734H218.718V90.2993H213.041V75.0712H206.722V90.2993H201.168Z" fill="#252525"/>
<path d="M222.525 81.7676V63.2657C222.525 60.4218 223.257 58.2228 224.722 56.6685C226.186 55.1143 228.276 54.3372 230.991 54.3372C233.707 54.3372 235.788 55.1143 237.236 56.6685C238.701 58.2228 239.433 60.4218 239.433 63.2657V81.7676C239.433 84.6115 238.701 86.8106 237.236 88.3648C235.788 89.919 233.707 90.6961 230.991 90.6961C228.276 90.6961 226.186 89.919 224.722 88.3648C223.257 86.8106 222.525 84.6115 222.525 81.7676ZM228.103 82.1148C228.103 84.4627 229.066 85.6366 230.991 85.6366C232.9 85.6366 233.855 84.4627 233.855 82.1148V62.9185C233.855 60.5872 232.9 59.4215 230.991 59.4215C229.066 59.4215 228.103 60.5872 228.103 62.9185V82.1148Z" fill="#252525"/>
<path d="M243.043 81.8172V54.734H248.597V82.1644C248.597 84.4792 249.559 85.6366 251.485 85.6366C253.393 85.6366 254.348 84.4792 254.348 82.1644V54.734H259.605V81.8172C259.605 84.6776 258.898 86.885 257.483 88.4392C256.084 89.9769 254.035 90.7457 251.336 90.7457C248.638 90.7457 246.581 89.9769 245.166 88.4392C243.75 86.885 243.043 84.6776 243.043 81.8172Z" fill="#252525"/>
<path d="M262.82 81.7676V79.5851H268.078V82.1148C268.078 84.4296 269.04 85.587 270.966 85.587C272.891 85.587 273.854 84.4296 273.854 82.1148C273.854 81.1228 273.648 80.1886 273.237 79.3123C272.842 78.436 272.323 77.6506 271.682 76.9561C271.056 76.2452 270.357 75.5425 269.583 74.848C268.81 74.137 268.028 73.4013 267.239 72.6407C266.465 71.8636 265.758 71.0451 265.116 70.1853C264.49 69.3256 263.972 68.3004 263.561 67.11C263.166 65.9195 262.968 64.6381 262.968 63.2657C262.968 60.4053 263.659 58.2062 265.042 56.6685C266.44 55.1143 268.481 54.3372 271.163 54.3372C273.845 54.3372 275.878 55.1143 277.26 56.6685C278.659 58.2062 279.358 60.4053 279.358 63.2657V64.4066H274.101V62.9185C274.101 60.5872 273.171 59.4215 271.311 59.4215C270.39 59.4215 269.699 59.7026 269.238 60.2648C268.777 60.8104 268.547 61.695 268.547 62.9185C268.547 63.9106 268.744 64.8448 269.139 65.7211C269.551 66.5974 270.069 67.391 270.694 68.102C271.336 68.7965 272.044 69.4992 272.817 70.2101C273.59 70.9046 274.364 71.6404 275.137 72.4175C275.911 73.178 276.61 73.9882 277.235 74.848C277.877 75.7078 278.395 76.7329 278.79 77.9234C279.202 79.1139 279.407 80.3953 279.407 81.7676C279.407 84.628 278.7 86.8354 277.285 88.3896C275.869 89.9273 273.813 90.6961 271.114 90.6961C268.415 90.6961 266.358 89.9273 264.943 88.3896C263.528 86.8354 262.82 84.628 262.82 81.7676Z" fill="#252525"/>
<path d="M282.844 90.2993V54.734H298V59.8183H288.398V69.7389H296.025V74.7984H288.398V85.215H298V90.2993H282.844Z" fill="#252525"/>
</svg>
