<svg width="43" height="43" viewBox="0 0 43 43" fill="none" xmlns="http://www.w3.org/2000/svg">
<g clip-path="url(#clip0_16_5)">
<path d="M33.412 25.4246L33.3917 25.4039C33.3884 25.4006 33.385 25.3973 33.3815 25.3941L30.9734 22.9861C30.2966 22.309 29.3967 21.9363 28.4394 21.9363C27.4881 21.9363 26.5928 22.3047 25.9173 22.974C25.9124 22.9785 25.9077 22.9835 25.9029 22.9881L24.623 24.2682L18.7294 18.3742L20.0088 17.0944C20.0138 17.0898 20.0183 17.0849 20.023 17.0803C21.4084 15.6821 21.4047 13.4175 20.0112 12.0239L17.6067 9.61914L17.5936 9.60604C16.9169 8.93055 16.0177 8.5585 15.0617 8.5585C14.1086 8.5585 13.2123 8.92829 12.5365 9.59907C12.5273 9.60831 12.5182 9.61755 12.5093 9.62704L11.4051 10.7309C11.0568 11.079 10.7087 11.4272 10.3608 11.7755C8.6555 13.4804 8.257 16.1985 9.23852 19.4289C10.1374 22.3877 12.1153 25.5001 14.8074 28.1925C18.5657 31.9508 23.1684 34.2853 26.8188 34.2853C28.6241 34.2853 30.1479 33.7161 31.2194 32.6443C31.2418 32.6224 31.8582 32.0059 32.59 31.274L33.3916 30.4725L33.3958 30.4683C34.7727 29.0868 34.7858 26.8464 33.4332 25.4483C33.4264 25.4401 33.4193 25.4323 33.4119 25.4246H33.412ZM31.6191 28.6817C31.6115 28.6892 31.604 28.6968 31.5964 28.7046L30.8088 29.4924C30.0893 30.2117 29.4819 30.8193 29.4427 30.8579C28.8404 31.4604 27.9576 31.7658 26.8189 31.7658C23.8574 31.7658 19.8423 29.6639 16.5892 26.4111C14.1842 24.0061 12.43 21.2664 11.6492 18.6963C10.961 16.4317 11.1407 14.5584 12.1433 13.5559L13.1865 12.5127L14.3082 11.391C14.3124 11.3868 14.3164 11.3828 14.3203 11.3785C14.5186 11.1851 14.7848 11.0773 15.0617 11.078C15.2019 11.0777 15.3406 11.1052 15.4701 11.1589C15.5995 11.2127 15.7169 11.2916 15.8156 11.391L18.2296 13.8053C18.6445 14.2202 18.6445 14.8954 18.2296 15.3104C18.2289 15.3111 18.2282 15.3121 18.2272 15.3127V15.313L16.0567 17.4835C15.565 17.9757 15.565 18.7731 16.0567 19.2653L23.7325 26.9406C23.8494 27.0576 23.9882 27.1505 24.141 27.2138C24.2939 27.2771 24.4577 27.3097 24.6231 27.3097C24.9575 27.3097 25.2779 27.1768 25.5142 26.9406L27.6709 24.7833C27.6787 24.7761 27.6863 24.7682 27.6938 24.7606C27.8925 24.5647 28.1605 24.4552 28.4395 24.4558C28.7237 24.4558 28.9906 24.5667 29.1918 24.7675L31.5994 27.1748L31.6047 27.1804C31.6073 27.183 31.6099 27.1856 31.6122 27.1883C32.0216 27.6 32.0237 28.2669 31.6191 28.6817Z" fill="white"/>
<path d="M36.7029 6.29715C32.642 2.2365 27.2431 0 21.5 0C15.7569 0 10.358 2.23642 6.29715 6.29715C2.2365 10.3583 0 15.7572 0 21.5C0 27.2428 2.23642 32.642 6.29715 36.7029C10.358 40.7635 15.7572 43 21.5 43C27.2428 43 32.6417 40.7636 36.7029 36.7029C40.7635 32.642 43 27.2431 43 21.5C43 15.7572 40.7636 10.3583 36.7029 6.29715ZM21.5 40.4805C11.0341 40.4805 2.51953 31.9655 2.51953 21.5C2.51953 11.0345 11.0341 2.51987 21.5 2.51953C31.9659 2.51987 40.4805 11.0345 40.4805 21.5C40.4801 31.9659 31.9655 40.4805 21.5 40.4805Z" fill="white"/>
</g>
<defs>
<clipPath id="clip0_16_5">
<rect width="43" height="43" fill="white"/>
</clipPath>
</defs>
</svg>
