<svg width="50" height="50" viewBox="0 0 50 50" fill="none" xmlns="http://www.w3.org/2000/svg">
<g clip-path="url(#clip0_326_18)">
<path fill-rule="evenodd" clip-rule="evenodd" d="M37.5 50H12.5C9.18484 49.9999 6.0055 48.6828 3.66133 46.3387C1.31715 43.9945 0.000145029 40.8152 0 37.5L0 12.5C0.000145029 9.18484 1.31715 6.0055 3.66133 3.66133C6.0055 1.31715 9.18484 0.000145029 12.5 0L37.5 0C40.8152 0 43.9946 1.31696 46.3388 3.66117C48.683 6.00537 50 9.18479 50 12.5V37.5C50 40.8152 48.683 43.9946 46.3388 46.3388C43.9946 48.683 40.8152 50 37.5 50Z" fill="#199BDF"/>
<path fill-rule="evenodd" clip-rule="evenodd" d="M23.4375 14.0625H37.5C39.3026 14.0624 41.0362 13.37 42.343 12.1284C43.6498 10.8868 44.4298 9.19082 44.5221 7.39063C44.6143 5.59043 44.0117 3.82356 42.8387 2.45489C41.6657 1.08623 40.0119 0.220298 38.2187 0.0359375C37.9797 0.0226562 37.743 0 37.5 0H12.5C9.18484 0.000145029 6.0055 1.31715 3.66133 3.66133C1.31715 6.0055 0.000145029 9.18484 0 12.5L0 37.5C0.000145034 31.284 2.46949 25.3227 6.86485 20.9273C11.2602 16.532 17.2215 14.0626 23.4375 14.0625" fill="#32B4FF"/>
<path fill-rule="evenodd" clip-rule="evenodd" d="M37.5 25C35.0277 25 32.611 25.7331 30.5554 27.1066C28.4998 28.4801 26.8976 30.4324 25.9515 32.7165C25.0054 35.0005 24.7579 37.5139 25.2402 39.9386C25.7225 42.3634 26.913 44.5907 28.6612 46.3388C30.4093 48.087 32.6366 49.2775 35.0614 49.7598C37.4861 50.2421 39.9995 49.9946 42.2836 49.0485C44.5676 48.1024 46.5199 46.5002 47.8934 44.4446C49.2669 42.389 50 39.9723 50 37.5V12.5C50 15.8152 48.683 18.9946 46.3388 21.3388C43.9946 23.683 40.8152 25 37.5 25Z" fill="#0082BE"/>
<path fill-rule="evenodd" clip-rule="evenodd" d="M35.2187 13.3063C35.6028 13.1477 36.0221 13.0941 36.4337 13.1509C36.8453 13.2078 37.2344 13.373 37.5611 13.6297C37.8878 13.8864 38.1405 14.2253 38.2931 14.6117C38.4457 14.9982 38.4928 15.4183 38.4297 15.8289C37.5192 21.75 35.85 32.6 34.9639 38.3594C34.9026 38.7579 34.7395 39.1339 34.4904 39.451C34.2413 39.7681 33.9146 40.0155 33.5419 40.1694C33.1691 40.3233 32.763 40.3784 32.3628 40.3294C31.9626 40.2805 31.5817 40.1291 31.2571 39.8899C28.1226 37.5805 23.423 34.118 21.037 32.3594C20.8529 32.2237 20.7008 32.0493 20.5915 31.8483C20.4822 31.6474 20.4183 31.425 20.4044 31.1967C20.3905 30.9684 20.4268 30.7398 20.5109 30.5271C20.595 30.3144 20.7248 30.1227 20.8911 29.9657C23.0774 27.9008 27.4319 23.7883 30.428 20.9586C30.4985 20.8916 30.5415 20.8006 30.5485 20.7034C30.5554 20.6063 30.5259 20.5101 30.4656 20.4337C30.4054 20.3572 30.3187 20.306 30.2227 20.2901C30.1266 20.2742 30.0281 20.2947 29.9464 20.3477C26.1049 22.8532 20.2216 26.6899 17.3382 28.5703C16.7978 28.9228 16.1905 29.1599 15.5543 29.2667C14.918 29.3736 14.2666 29.348 13.6407 29.1914C12.053 28.7946 9.7628 28.2219 7.72476 27.7125C7.40567 27.6328 7.11989 27.4544 6.9081 27.2028C6.69631 26.9512 6.56932 26.6391 6.54522 26.3111C6.52112 25.9831 6.60113 25.6559 6.77387 25.376C6.94661 25.0961 7.20325 24.8779 7.50726 24.7524C14.6019 21.8219 28.4862 16.0875 35.2187 13.3063Z" fill="white"/>
</g>
<defs>
<clipPath id="clip0_326_18">
<rect width="50" height="50" fill="white"/>
</clipPath>
</defs>
</svg>
