<svg width="50" height="50" viewBox="0 0 50 50" fill="none" xmlns="http://www.w3.org/2000/svg">
<g clip-path="url(#clip0_326_2)">
<path fill-rule="evenodd" clip-rule="evenodd" d="M37.5 50H12.5C9.18484 49.9999 6.0055 48.6828 3.66133 46.3387C1.31715 43.9945 0.000145029 40.8152 0 37.5L0 12.5C0.000145029 9.18484 1.31715 6.0055 3.66133 3.66133C6.0055 1.31715 9.18484 0.000145029 12.5 0L37.5 0C40.8152 0 43.9946 1.31696 46.3388 3.66117C48.683 6.00537 50 9.18479 50 12.5V37.5C50 40.8152 48.683 43.9946 46.3388 46.3388C43.9946 48.683 40.8152 50 37.5 50Z" fill="#4682C3"/>
<path fill-rule="evenodd" clip-rule="evenodd" d="M23.4375 14.0625H37.5C39.3026 14.0624 41.0362 13.37 42.343 12.1284C43.6498 10.8868 44.4298 9.19082 44.5221 7.39063C44.6143 5.59043 44.0117 3.82356 42.8387 2.45489C41.6657 1.08623 40.0119 0.220298 38.2187 0.0359375C37.9797 0.0226562 37.743 0 37.5 0H12.5C9.18484 0.000145029 6.0055 1.31715 3.66133 3.66133C1.31715 6.0055 0.000145029 9.18484 0 12.5L0 37.5C0.000145034 31.284 2.46949 25.3227 6.86485 20.9273C11.2602 16.532 17.2215 14.0626 23.4375 14.0625" fill="#5F9BDC"/>
<path fill-rule="evenodd" clip-rule="evenodd" d="M37.5 25C35.0277 25 32.611 25.7331 30.5554 27.1066C28.4998 28.4801 26.8976 30.4324 25.9515 32.7165C25.0054 35.0005 24.7579 37.5139 25.2402 39.9386C25.7225 42.3634 26.913 44.5907 28.6612 46.3388C30.4093 48.087 32.6366 49.2775 35.0614 49.7598C37.4861 50.2421 39.9995 49.9946 42.2836 49.0485C44.5676 48.1024 46.5199 46.5002 47.8934 44.4446C49.2669 42.389 50 39.9723 50 37.5V12.5C50 15.8152 48.683 18.9946 46.3388 21.3388C43.9946 23.683 40.8152 25 37.5 25Z" fill="#2D69AA"/>
<path fill-rule="evenodd" clip-rule="evenodd" d="M41.4984 17.0344C41.7516 16.2391 41.4984 15.6618 40.3773 15.6618H36.6547C36.3078 15.6425 35.9637 15.7335 35.6717 15.9217C35.3797 16.1098 35.1547 16.3856 35.0289 16.7094C33.8647 19.4547 32.319 22.0219 30.4375 24.3352C29.5703 25.2024 29.1734 25.4923 28.7031 25.4923C28.45 25.4923 28.125 25.2024 28.125 24.4071V16.9985C28.125 16.0587 27.8352 15.6251 27.0406 15.6251H21.3328C21.2139 15.6193 21.0951 15.6373 20.9832 15.678C20.8714 15.7186 20.7687 15.7811 20.6813 15.8618C20.5938 15.9425 20.5233 16.0398 20.4738 16.1481C20.4243 16.2563 20.3968 16.3733 20.393 16.4923C20.393 17.3962 21.7305 17.6126 21.875 20.143V25.636C21.875 26.829 21.6578 27.0462 21.1883 27.0462C19.9227 27.0462 16.3422 22.3837 14.4984 17.0704C14.1367 16.0219 13.7766 15.6251 12.8359 15.6251H9.07734C7.99297 15.6251 7.8125 16.1305 7.8125 16.6727C7.8125 19.0602 14.5609 35.9008 25.4508 35.9008C27.8352 35.9008 28.125 35.3594 28.125 34.4555V31.0946C28.125 30.0094 28.3422 29.829 29.1008 29.829C31.0391 29.829 34.5469 34.1587 35.4531 35.0657C35.6623 35.3297 35.9269 35.5447 36.2282 35.6953C36.5295 35.8459 36.8601 35.9286 37.1969 35.9376H40.9195C42.0039 35.9376 42.3813 35.279 42.093 34.2313C41.4227 32.0751 36.7594 27.6391 36.5109 27.2993C35.968 26.5758 36.1125 26.2876 36.5109 25.636C36.4742 25.636 41.0281 19.2032 41.4984 17.0344V17.0344Z" fill="white"/>
</g>
<defs>
<clipPath id="clip0_326_2">
<rect width="50" height="50" fill="white"/>
</clipPath>
</defs>
</svg>
