<svg width="50" height="50" viewBox="0 0 50 50" fill="none" xmlns="http://www.w3.org/2000/svg">
<g clip-path="url(#clip0_326_9)">
<path fill-rule="evenodd" clip-rule="evenodd" d="M37.5 50H12.5C9.18484 49.9999 6.0055 48.6828 3.66133 46.3387C1.31715 43.9945 0.000145029 40.8152 0 37.5L0 12.5C0.000145029 9.18484 1.31715 6.0055 3.66133 3.66133C6.0055 1.31715 9.18484 0.000145029 12.5 0L37.5 0C40.8152 0 43.9946 1.31696 46.3388 3.66117C48.683 6.00537 50 9.18479 50 12.5V37.5C50 40.8152 48.683 43.9946 46.3388 46.3388C43.9946 48.683 40.8152 50 37.5 50Z" fill="#00D264"/>
<path fill-rule="evenodd" clip-rule="evenodd" d="M23.4375 14.0625H37.5C39.3026 14.0624 41.0362 13.37 42.343 12.1284C43.6498 10.8868 44.4298 9.19082 44.5221 7.39063C44.6143 5.59043 44.0117 3.82356 42.8387 2.45489C41.6657 1.08623 40.0119 0.220298 38.2187 0.0359375C37.9797 0.0226562 37.743 0 37.5 0H12.5C9.18484 0.000145029 6.0055 1.31715 3.66133 3.66133C1.31715 6.0055 0.000145029 9.18484 0 12.5L0 37.5C0.000145034 31.284 2.46949 25.3227 6.86485 20.9273C11.2602 16.532 17.2215 14.0626 23.4375 14.0625" fill="#00EB78"/>
<path fill-rule="evenodd" clip-rule="evenodd" d="M37.5 25C35.0277 25 32.611 25.7331 30.5554 27.1066C28.4998 28.4801 26.8976 30.4324 25.9515 32.7165C25.0054 35.0005 24.7579 37.5139 25.2402 39.9386C25.7225 42.3634 26.913 44.5907 28.6612 46.3388C30.4093 48.087 32.6366 49.2775 35.0614 49.7598C37.4861 50.2421 39.9995 49.9946 42.2836 49.0485C44.5676 48.1024 46.5199 46.5002 47.8934 44.4446C49.2669 42.389 50 39.9723 50 37.5V12.5C50 15.8152 48.683 18.9946 46.3388 21.3388C43.9946 23.683 40.8152 25 37.5 25Z" fill="#00B950"/>
<path fill-rule="evenodd" clip-rule="evenodd" d="M16.9321 36.7913C17.14 36.7322 17.358 36.7168 17.5722 36.7461C17.7864 36.7754 17.9922 36.8488 18.1766 36.9616C21.2829 38.8123 24.9583 39.4643 28.5116 38.7949C32.0649 38.1255 35.2513 36.1809 37.4713 33.3269C39.6913 30.4729 40.792 26.906 40.5665 23.2973C40.3409 19.6885 38.8046 16.2865 36.2465 13.7311C33.6884 11.1757 30.2847 9.64301 26.6757 9.4213C23.0667 9.19959 19.5011 10.3041 16.6494 12.5272C13.7977 14.7502 11.8565 17.9386 11.191 21.4926C10.5254 25.0466 11.1812 28.7214 13.0352 31.8257C13.1476 32.0096 13.2207 32.2148 13.2497 32.4283C13.2788 32.6419 13.2632 32.8591 13.204 33.0663C12.7688 34.6062 11.7188 38.2812 11.7188 38.2812C11.7188 38.2812 15.3938 37.2312 16.9321 36.7913V36.7913ZM10.3274 33.3859C8.09374 29.6206 7.31145 25.1694 8.12743 20.8682C8.94341 16.567 11.3015 12.7115 14.759 10.0259C18.2164 7.34032 22.5353 6.00924 26.9047 6.28266C31.2741 6.55607 35.3934 8.41517 38.4891 11.5108C41.5848 14.6065 43.4439 18.7258 43.7173 23.0952C43.9907 27.4646 42.6596 31.7836 39.974 35.241C37.2884 38.6984 33.433 41.0566 29.1318 41.8725C24.8305 42.6885 20.3794 41.9062 16.6141 39.6726C16.6141 39.6726 11.6321 41.096 9.16489 41.8015C9.03086 41.8396 8.88907 41.8413 8.7542 41.8062C8.61932 41.7712 8.49625 41.7008 8.39771 41.6023C8.29918 41.5037 8.22875 41.3806 8.19373 41.2458C8.1587 41.1109 8.16034 40.9691 8.19848 40.8351C8.90395 38.3679 10.3274 33.3859 10.3274 33.3859V33.3859Z" fill="white"/>
<path fill-rule="evenodd" clip-rule="evenodd" d="M17.1726 19.3638C17.4157 22.862 18.9087 26.1562 21.3791 28.645C23.8495 31.1337 27.1325 32.6511 30.6289 32.92H30.6305C31.1887 32.9632 31.7497 32.885 32.2748 32.6908C32.8 32.4966 33.2768 32.191 33.6726 31.795L34.2179 31.2497C34.4754 30.9921 34.6201 30.6428 34.6203 30.2786V29.1208C34.6203 28.9756 34.5798 28.8334 34.5035 28.7099C34.4272 28.5864 34.3181 28.4866 34.1883 28.4216C33.3656 28.0106 31.5797 27.1177 30.7047 26.6802C30.5579 26.6068 30.3919 26.5814 30.2299 26.6076C30.068 26.6339 29.9184 26.7103 29.8023 26.8263C29.3664 27.2622 28.6773 27.9521 28.2867 28.3419C28.1958 28.4328 28.0838 28.4999 27.9608 28.5373C27.8377 28.5746 27.7074 28.581 27.5812 28.556L27.5742 28.5544C26.0617 28.2519 24.6726 27.5085 23.5819 26.4178C22.4912 25.3271 21.7478 23.938 21.4453 22.4255L21.4437 22.4185C21.4187 22.2923 21.4251 22.162 21.4624 22.0389C21.4998 21.9159 21.5669 21.8039 21.6578 21.713C22.0476 21.3224 22.7375 20.6333 23.1734 20.1974C23.2893 20.0813 23.3658 19.9317 23.392 19.7698C23.4183 19.6078 23.3929 19.4417 23.3195 19.295C22.882 18.42 21.989 16.6341 21.5781 15.8114C21.5131 15.6816 21.4133 15.5725 21.2898 15.4962C21.1663 15.4199 21.024 15.3794 20.8789 15.3794H19.8945C19.6608 15.3795 19.4296 15.4286 19.2161 15.5236C19.0025 15.6186 18.8112 15.7574 18.6547 15.931C18.4976 16.106 18.3172 16.306 18.1359 16.5075C17.7948 16.8861 17.5334 17.3294 17.3672 17.8111C17.201 18.2928 17.1335 18.8031 17.1687 19.3114C17.1703 19.3286 17.1711 19.3458 17.1726 19.3638V19.3638Z" fill="white"/>
</g>
<defs>
<clipPath id="clip0_326_9">
<rect width="50" height="50" fill="white"/>
</clipPath>
</defs>
</svg>
